<?xml version="1.0"?>
<svg xmlns="http://www.w3.org/2000/svg" xmlns:xlink="http://www.w3.org/1999/xlink" xmlns:svgjs="http://svgjs.com/svgjs" version="1.1" width="512" height="512" x="0" y="0" viewBox="0 0 512 512" style="enable-background:new 0 0 512 512" xml:space="preserve" class=""><g transform="matrix(1.0899999999999999,0,0,1.0899999999999999,-22.67999999999995,-28.399999999999693)"><g xmlns="http://www.w3.org/2000/svg" id="Flat"><path d="m424 328-80 80h-96l-40 40-56-56 29.25-29.25a64.00441 64.00441 0 0 1 45.26-18.75h13.49l8-8a45.2604 45.2604 0 0 1 64 0l-24 24h40l32-32a45.2604 45.2604 0 0 1 64 0z" fill="#f4ceaf" data-original="#f4ceaf" style="" class=""/><path d="m310.63 360-24 24h-22.63a8 8 0 1 1 0-16h16l8-8z" fill="#f2c194" data-original="#f2c194" style=""/><path d="m192 496 32-32-88-88-120 120z" fill="#396795" data-original="#396795" style="" class=""/><circle cx="172" cy="468" fill="#5dc6e3" r="12" data-original="#eebe33" style="" class=""/><rect fill="#5dc6e3" height="256" rx="16" width="368" x="96" y="24" data-original="#eebe33" style="" class=""/><path d="m112 24h240a0 0 0 0 1 0 0v256a0 0 0 0 1 0 0h-240a16 16 0 0 1 -16-16v-224a16 16 0 0 1 16-16z" fill="#23a8cc" data-original="#eedc9a" style="" class=""/><path d="m256 88-16-16-16 16-16-16-16 16v-64h64z" fill="#ff0000" data-original="#ad7d4d" style="" class=""/><path d="m224 176h96v72h-96z" fill="#8acce7" data-original="#8acce7" style="" class=""/><g fill="#379ec3"><path d="m240 192h32v16h-32z" fill="#379ec3" data-original="#379ec3" style=""/><path d="m288 192h16v16h-16z" fill="#379ec3" data-original="#379ec3" style=""/><path d="m240 216h16v16h-16z" fill="#379ec3" data-original="#379ec3" style=""/><path d="m272 216h32v16h-32z" fill="#379ec3" data-original="#379ec3" style=""/></g><path d="m72 192a32 32 0 0 0 32-32 32 32 0 0 0 32 32 32 32 0 0 0 -32 32 32 32 0 0 0 -32-32z" fill="#f1f741" data-original="#e88604" style="" class=""/><path d="m320 104a32 32 0 0 0 32-32 32 32 0 0 0 32 32 32 32 0 0 0 -32 32 32 32 0 0 0 -32-32z" fill="#f1f741" data-original="#e88604" style="" class=""/><path d="m424 176a32 32 0 0 0 32-32 32 32 0 0 0 32 32 32 32 0 0 0 -32 32 32 32 0 0 0 -32-32z" fill="#f1f741" data-original="#e88604" style="" class=""/></g></g></svg>
